<?xml version="1.0" encoding="utf-8"?>
<!-- Generator: Adobe Illustrator 26.0.0, SVG Export Plug-In . SVG Version: 6.00 Build 0)  -->
<svg version="1.1" id="Capa_1" xmlns="http://www.w3.org/2000/svg" xmlns:xlink="http://www.w3.org/1999/xlink" x="0px" y="0px"
	 viewBox="0 0 2000 928" style="enable-background:new 0 0 2000 928;" xml:space="preserve">
<style type="text/css">
	.st0{fill:#FFFFFF;}
	.st1{fill:#E6E6E6;}
</style>
<g>
	<g>
		<path class="st0" d="M574.7,702.91h-56.76c-11.66,0-20.25-4.51-25.74-13.53L369.43,520.4c-3.74-5.28-7.76-9.08-12.05-11.39
			c-4.29-2.31-10.95-3.47-19.97-3.47H288.9v197.36h-63.69V229.98h133.66c29.92,0,55.77,3.03,77.56,9.08
			c21.78,6.05,39.77,14.8,53.96,26.24c14.19,11.44,24.7,25.25,31.52,41.42c6.82,16.17,10.23,34.27,10.23,54.29
			c0,16.72-2.64,32.34-7.92,46.86s-12.93,27.56-22.94,39.11c-10.01,11.55-22.23,21.4-36.63,29.54
			c-14.41,8.14-30.75,14.3-49.01,18.48c8.14,4.62,15.18,11.33,21.12,20.13L574.7,702.91z M356.23,459.02
			c18.48,0,34.82-2.25,49.01-6.77c14.19-4.51,26.07-10.89,35.64-19.14c9.57-8.25,16.77-18.09,21.62-29.54
			c4.84-11.44,7.26-24.09,7.26-37.95c0-28.16-9.24-49.39-27.72-63.69c-18.48-14.3-46.2-21.45-83.17-21.45H288.9v178.54H356.23z"/>
		<path class="st0" d="M839.06,656.04c-7.26,8.8-15.96,16.45-26.07,22.94c-10.12,6.49-20.96,11.83-32.51,16.01
			c-11.55,4.18-23.49,7.32-35.81,9.41c-12.32,2.09-24.54,3.13-36.63,3.13c-23.1,0-44.39-3.91-63.86-11.72
			c-19.47-7.81-36.3-19.25-50.49-34.32c-14.19-15.07-25.25-33.71-33.17-55.94c-7.92-22.22-11.88-47.74-11.88-76.57
			c0-23.32,3.57-45.1,10.73-65.35c7.15-20.24,17.44-37.79,30.86-52.64c13.42-14.85,29.81-26.51,49.17-34.98
			c19.36-8.47,41.14-12.71,65.35-12.71c20.02,0,38.56,3.36,55.61,10.07c17.05,6.71,31.79,16.39,44.22,29.04
			c12.43,12.65,22.16,28.27,29.21,46.86c7.04,18.59,10.56,39.77,10.56,63.53c0,9.24-0.99,15.4-2.97,18.48
			c-1.98,3.08-5.72,4.62-11.22,4.62H606.72c0.66,21.12,3.57,39.5,8.75,55.11c5.17,15.62,12.38,28.66,21.62,39.11
			c9.24,10.45,20.24,18.26,33,23.43c12.76,5.17,27.06,7.76,42.9,7.76c14.74,0,27.44-1.7,38.12-5.12
			c10.67-3.41,19.85-7.1,27.56-11.06c7.7-3.96,14.13-7.64,19.31-11.06c5.17-3.41,9.62-5.12,13.37-5.12c4.84,0,8.58,1.87,11.22,5.61
			L839.06,656.04z M791.54,499.28c0-13.64-1.93-26.12-5.78-37.46c-3.85-11.33-9.46-21.12-16.83-29.37
			c-7.37-8.25-16.34-14.63-26.9-19.14c-10.56-4.51-22.56-6.77-35.97-6.77c-28.17,0-50.44,8.2-66.83,24.59
			c-16.39,16.39-26.57,39.11-30.53,68.15H791.54z"/>
		<path class="st0" d="M980.98,708.19c-26.4,0-46.7-7.37-60.89-22.11c-14.19-14.74-21.29-35.97-21.29-63.7V417.77h-40.26
			c-3.52,0-6.49-1.04-8.91-3.14c-2.42-2.09-3.63-5.33-3.63-9.74v-23.43l54.78-6.93l13.53-103.3c0.66-3.3,2.15-5.99,4.46-8.09
			c2.31-2.09,5.33-3.13,9.08-3.13h29.7v115.18h96.7v42.57h-96.7v200.66c0,14.08,3.41,24.54,10.23,31.35
			c6.82,6.82,15.62,10.23,26.4,10.23c6.16,0,11.49-0.83,16.01-2.48c4.51-1.65,8.42-3.46,11.72-5.45c3.3-1.98,6.11-3.79,8.42-5.45
			c2.31-1.65,4.34-2.47,6.11-2.47c3.08,0,5.83,1.87,8.25,5.61l17.16,28.05c-10.12,9.46-22.33,16.89-36.63,22.28
			C1010.89,705.49,996.16,708.19,980.98,708.19z"/>
	</g>
</g>
<g>
	<g>
		<path class="st0" d="M1357.34,438.59c10.56-22.88,23.54-40.76,38.94-53.63c15.4-12.87,34.21-19.31,56.43-19.31
			c7.04,0,13.8,0.77,20.3,2.31c6.49,1.54,12.26,3.96,17.33,7.26l-4.29,43.89c-1.32,5.5-4.62,8.25-9.9,8.25
			c-3.08,0-7.59-0.66-13.53-1.98s-12.65-1.98-20.13-1.98c-10.56,0-19.97,1.54-28.22,4.62c-8.25,3.08-15.62,7.65-22.11,13.7
			c-6.49,6.05-12.32,13.53-17.49,22.44c-5.17,8.91-9.85,19.09-14.03,30.53v211.22h-59.08V371.59h33.66c6.38,0,10.78,1.21,13.2,3.63
			c2.42,2.42,4.07,6.6,4.95,12.54L1357.34,438.59z"/>
		<path class="st0" d="M1769.88,659.04c-7.26,8.8-15.96,16.45-26.07,22.94c-10.12,6.49-20.96,11.83-32.51,16.01
			c-11.55,4.18-23.49,7.32-35.81,9.41c-12.32,2.09-24.54,3.13-36.63,3.13c-23.1,0-44.39-3.91-63.86-11.72
			c-19.47-7.81-36.3-19.25-50.49-34.32c-14.19-15.07-25.25-33.71-33.17-55.94c-7.92-22.22-11.88-47.74-11.88-76.57
			c0-23.32,3.57-45.1,10.73-65.35c7.15-20.24,17.43-37.79,30.86-52.64c13.42-14.85,29.81-26.51,49.17-34.98
			c19.36-8.47,41.14-12.71,65.34-12.71c20.02,0,38.56,3.36,55.61,10.07c17.05,6.71,31.79,16.39,44.22,29.04
			c12.43,12.65,22.16,28.27,29.21,46.86c7.04,18.59,10.56,39.77,10.56,63.53c0,9.24-0.99,15.4-2.97,18.48
			c-1.98,3.08-5.72,4.62-11.22,4.62h-223.43c0.66,21.12,3.57,39.5,8.75,55.11c5.17,15.62,12.38,28.66,21.62,39.11
			c9.24,10.45,20.24,18.26,33,23.43c12.76,5.17,27.06,7.76,42.9,7.76c14.74,0,27.44-1.7,38.12-5.12
			c10.67-3.41,19.85-7.1,27.56-11.06c7.7-3.96,14.13-7.64,19.31-11.06c5.17-3.41,9.62-5.12,13.37-5.12c4.84,0,8.58,1.87,11.22,5.61
			L1769.88,659.04z M1722.35,502.28c0-13.64-1.93-26.12-5.78-37.46c-3.85-11.33-9.46-21.12-16.83-29.37
			c-7.37-8.25-16.34-14.63-26.9-19.14c-10.56-4.51-22.56-6.77-35.97-6.77c-28.17,0-50.44,8.2-66.83,24.59
			c-16.39,16.39-26.57,39.11-30.53,68.15H1722.35z"/>
	</g>
</g>
<g>
	<g>
		<path class="st1" d="M1269.58,706.86h-181.12c-0.27-2.37-0.4-4.35-0.4-5.93c0-4.48,0.92-7.58,2.77-9.29
			c1.84-1.71,7.64-3.49,17.4-5.34c15.29-3.16,27.68-6.98,37.17-11.47c2.63-5.8,3.96-11.2,3.96-16.21V634.1
			c0-2.9,0.4-16.21,1.19-39.94c0.26-8.96,0.53-47.71,0.79-116.26l0.79-92.93l-0.79-54.18c0-7.91,0.26-32.82,0.79-74.74
			c-59.85,42.71-92.67,64.06-98.47,64.06c-2.11,0-4.35-1.12-6.72-3.36c-2.37-2.24-3.56-4.41-3.56-6.53c0-2.63,0.92-4.75,2.77-6.33
			c3.69-3.42,12.52-9.1,26.5-17c2.11-1.05,11.2-8.17,27.29-21.35c25.57-21.35,44.29-38.09,56.15-50.22
			c11.86-12.12,19.11-18.98,21.75-20.56c5.27-0.26,9.35-0.4,12.26-0.4c6.85,0,11.13,1.12,12.85,3.37
			c1.71,2.24,2.57,10.36,2.57,24.34l-2.77,352.63v34.82c0,8.45-0.14,16.96-0.4,25.53c-0.27,8.58-0.39,14.84-0.39,18.8
			c0,9.5,1.19,15.7,3.56,18.6c1.58,1.85,6.46,4.22,14.63,7.12l26.89,5.54c11.6,2.9,17.93,4.89,18.98,5.94
			c2.63,2.32,3.95,5.92,3.95,10.8L1269.58,706.86z"/>
	</g>
</g>
</svg>
